<svg xmlns="http://www.w3.org/2000/svg" viewBox="0 0 512 512" style="enable-background:new 0 0 512 512" xml:space="preserve"><path style="fill:#7fd0fd" d="M512 255.904c0 70.692-28.654 134.692-74.981 181.019S326.692 511.904 256 511.904s-134.692-28.654-181.019-74.98S0 326.597 0 255.904 28.654 121.212 74.981 74.885 185.308-.096 256-.096s134.692 28.654 181.019 74.981S512 185.212 512 255.904z"/><path style="fill:#fdd347" d="M146.938 41.195h-4.782c-28.871 0-55.009 11.702-73.93 30.623s-30.623 45.058-30.623 73.93v153.344c0 13.703 5.554 26.109 14.534 35.089s21.386 14.534 35.089 14.534h114.638c13.703 0 26.109-5.554 35.089-14.534s14.534-21.386 14.534-35.089V145.748c0-28.871-11.702-55.009-30.623-73.93s-45.055-30.623-73.926-30.623z"/><path style="fill:#e3b743" d="M145.906 348.714h-59.64c-13.705 0-26.11-5.555-35.089-14.535s-14.531-21.385-14.531-35.085v-153.35c0-28.87 11.703-55.007 30.623-73.927s45.058-30.623 73.928-30.623h4.78c4.745 0 9.417.315 13.996.929s9.064 1.526 13.434 2.721c-22.22 6.02-41.5 19.182-55.225 36.871s-21.895 39.904-21.895 64.029v153.35c0 13.7 5.552 26.105 14.531 35.085 8.978 8.98 21.383 14.535 35.088 14.535z"/><path style="fill:#d5d3d2" d="m251.49 384.634-.39 63.605-.39 63.605c-35.35-.715-68.94-8.595-99.379-22.248-30.439-13.652-57.726-33.077-80.471-56.882v21.85a5.473 5.473 0 0 1-3.595-1.737 5.467 5.467 0 0 1-1.465-3.732v-21.84c-5.58-6.19-10.86-12.652-15.819-19.366s-9.596-13.679-13.891-20.874l.005-1.19.005-1.19c0-10.995 1.668-21.473 4.686-31.017 3.019-9.545 7.389-18.158 12.794-25.423 5.52-7.425 12.122-13.44 19.47-17.599s15.44-6.461 23.94-6.461h93.61c1.045 0 2.085.035 3.119.105 1.034.07 2.061.175 3.081.315 2.345.31 4.652.797 6.912 1.452a48.88 48.88 0 0 1 6.628 2.458c4.52 2.045 8.797 4.772 12.765 8.09s7.625 7.225 10.905 11.63c5.405 7.265 9.775 15.88 12.794 25.428 3.019 9.546 4.686 20.026 4.686 31.021z"/><path style="fill:#fff" d="m251.49 384.634-.39 63.605-.39 63.605c-35.35-.715-68.94-8.595-99.379-22.248-30.439-13.652-57.726-33.077-80.471-56.882v-48.08c0-7.75.83-15.245 2.377-22.337s3.812-13.783 6.682-19.923a86.524 86.524 0 0 1 2.19-4.36 78.074 78.074 0 0 1 2.4-4.15 76.55 76.55 0 0 1 5.827-8.234 67.547 67.547 0 0 1 6.652-7.086 59.255 59.255 0 0 1 8.695-6.68 52.37 52.37 0 0 1 9.776-4.819c.081-.029.164-.056.249-.081 1.94-.7 3.92-1.278 5.935-1.724a46.43 46.43 0 0 1 8.122-1.062 47.177 47.177 0 0 1 1.993-.044h58.84c1.045 0 2.085.035 3.119.105 1.034.07 2.061.175 3.081.315 2.345.31 4.652.797 6.912 1.452a48.88 48.88 0 0 1 6.628 2.458c4.52 2.045 8.797 4.772 12.765 8.09s7.625 7.225 10.905 11.63c5.405 7.265 9.775 15.88 12.794 25.428 3.021 9.547 4.688 20.027 4.688 31.022z"/><path style="fill:#e09d6e" d="M174.001 277.142v41.846c0 3.358-1.361 6.398-3.562 8.599a12.122 12.122 0 0 1-8.599 3.562h-34.458c-3.358 0-6.398-1.361-8.599-3.562s-3.562-5.241-3.562-8.599v-41.846h58.78z"/><path style="fill:#fbb47a" d="M174.001 277.142v43.318c0 2.951-1.196 5.623-3.13 7.557a10.654 10.654 0 0 1-7.557 3.13h-35.528v-54.006h46.215zM24.5 183.562c0 6.031 2.445 11.492 6.397 15.444s9.413 6.397 15.444 6.397 11.492-2.445 15.444-6.397c3.953-3.952 6.397-9.413 6.397-15.444s-2.445-11.492-6.397-15.444c-3.952-3.952-9.413-6.397-15.444-6.397s-11.492 2.445-15.444 6.397-6.397 9.412-6.397 15.444z"/><path style="fill:#d29169" d="M37.605 183.562a8.71 8.71 0 0 0 2.559 6.178c1.581 1.581 3.765 2.559 6.178 2.559s4.597-.978 6.178-2.559c1.581-1.581 2.559-3.765 2.559-6.178s-.978-4.597-2.559-6.178c-1.581-1.581-3.765-2.559-6.178-2.559s-4.597.978-6.178 2.559a8.71 8.71 0 0 0-2.559 6.178z"/><path style="fill:#fbb47a" d="M219.406 183.562c0 6.031 2.445 11.492 6.397 15.444s9.413 6.397 15.444 6.397 11.492-2.445 15.444-6.397c3.953-3.952 6.397-9.413 6.397-15.444s-2.445-11.492-6.397-15.444c-3.952-3.952-9.413-6.397-15.444-6.397s-11.492 2.445-15.444 6.397-6.397 9.412-6.397 15.444z"/><path style="fill:#e09d6e" d="M232.51 183.562a8.71 8.71 0 0 0 2.559 6.178c1.581 1.581 3.765 2.559 6.178 2.559s4.597-.978 6.178-2.559c1.581-1.581 2.559-3.765 2.559-6.178s-.978-4.597-2.559-6.178c-1.581-1.581-3.765-2.559-6.178-2.559s-4.597.978-6.178 2.559a8.71 8.71 0 0 0-2.559 6.178zM68.18 198.115v-51.18a88.044 88.044 0 0 1 .151-5.13H62.28c-2.235 0-4.41-.253-6.505-.73a29.677 29.677 0 0 1-7.487-2.819 26.45 26.45 0 0 1-1.418-.821 79.707 79.707 0 0 0-.4 4.716 87.23 87.23 0 0 0-.13 4.784v51.18c0 22.59 9.155 43.037 23.955 57.837s35.245 23.952 57.825 23.952h21.85c-22.585 0-43.032-9.155-57.834-23.956S68.18 220.7 68.18 198.115z"/><path style="fill:#fbb47a" d="M240.72 137.445a29.469 29.469 0 0 1-13.37 4.28c-.335.025-.673.045-1.012.059-.34.014-.682.021-1.027.021h-26.66c-2.825 0-5.555-.408-8.146-1.164a30.044 30.044 0 0 1-7.314-3.256c-4.495-2.765-8.26-6.69-10.906-11.384-2.646-4.694-4.174-10.156-4.194-15.996-.04 8.785-3.473 16.735-9 22.489-5.528 5.754-13.15 9.311-21.57 9.311H68.33a86.67 86.67 0 0 0-.151 5.13v51.18c0 22.585 9.155 43.032 23.956 57.834s35.249 23.956 57.834 23.956h9.5c22.58 0 43.023-9.152 57.82-23.952s23.95-35.247 23.95-57.837v-51.18c0-1.605-.042-3.198-.129-4.779a81.449 81.449 0 0 0-.39-4.712z"/><path style="fill:#e29f6e" d="M152.881 216.021h-16.534c-2.363 0-4.503-.958-6.052-2.507s-2.507-3.688-2.507-6.052c0-2.363.958-4.503 2.507-6.052s3.688-2.507 6.052-2.507h16.534c2.363 0 4.503.958 6.052 2.507s2.507 3.688 2.507 6.052c0 2.363-.958 4.503-2.507 6.052s-3.689 2.507-6.052 2.507z"/><path style="fill:#1f3d5c" d="M95.47 205.403a11.703 11.703 0 0 1-8.301-3.438 11.703 11.703 0 0 1-3.438-8.301v-14.47c0-3.242 1.314-6.177 3.438-8.301a11.703 11.703 0 0 1 8.301-3.438c3.242 0 6.177 1.314 8.301 3.438a11.703 11.703 0 0 1 3.438 8.301v14.47c0 3.242-1.314 6.177-3.438 8.301a11.703 11.703 0 0 1-8.301 3.438z"/><path style="fill:#fff" d="M94.105 178.647c0 1.508.611 2.873 1.599 3.861s2.353 1.599 3.861 1.599 2.873-.611 3.861-1.599 1.599-2.353 1.599-3.861a5.443 5.443 0 0 0-1.599-3.861c-.988-.988-2.353-1.599-3.861-1.599s-2.873.611-3.861 1.599a5.443 5.443 0 0 0-1.599 3.861z"/><path style="fill:none;stroke:#1f3d5c;stroke-width:8;stroke-linecap:round;stroke-miterlimit:10" d="M123.591 236.936a20.957 20.957 0 0 0 6.157 14.865 20.957 20.957 0 0 0 14.865 6.157 20.957 20.957 0 0 0 14.865-6.157 20.957 20.957 0 0 0 6.157-14.865M209.616 177.982s1.84-.33 3.962-1.473c2.121-1.143 4.524-3.1 5.649-6.354M85.963 177.982s-1.84-.33-3.962-1.473c-2.121-1.143-4.524-3.1-5.649-6.354"/><path style="fill:#1f3d5c" d="M198.943 205.403c-3.242 0-6.177-1.314-8.301-3.438s-3.438-5.059-3.438-8.301v-14.47c0-3.242 1.314-6.177 3.438-8.301s5.059-3.438 8.301-3.438 6.177 1.314 8.301 3.438a11.703 11.703 0 0 1 3.438 8.301v14.47c0 3.242-1.314 6.177-3.438 8.301a11.703 11.703 0 0 1-8.301 3.438z"/><path style="fill:#fff" d="M197.578 178.647c0 1.508.611 2.873 1.599 3.861a5.443 5.443 0 0 0 3.861 1.599 5.443 5.443 0 0 0 3.861-1.599 5.443 5.443 0 0 0 1.599-3.861 5.443 5.443 0 0 0-1.599-3.861 5.443 5.443 0 0 0-3.861-1.599 5.443 5.443 0 0 0-3.861 1.599 5.447 5.447 0 0 0-1.599 3.861z"/><path style="fill:#d5d3d2" d="m115.222 304.138-15.181 9.163-15.181 9.163c-2.046 1.235-3.15 3.305-3.27 5.43s.745 4.307 2.639 5.763l10.398 7.997 10.398 7.997-12.273 11.994L80.48 373.64a6.773 6.773 0 0 0-2.015 4.229 6.775 6.775 0 0 0 1.204 4.527l32.472 46.24 32.472 46.24-14.695-85.369-14.696-85.369zM174.001 304.138l15.182 9.163 15.182 9.163a6.741 6.741 0 0 1 3.27 5.43 6.738 6.738 0 0 1-2.639 5.763l-10.398 7.997-10.398 7.997 12.273 11.994 12.273 11.994c1.19 1.163 1.871 2.671 2.015 4.229s-.248 3.166-1.204 4.527l-32.472 46.24-32.472 46.24 14.694-85.369 14.694-85.368zM237.157 432.411h-36.266a4.07 4.07 0 0 1-2.89-1.197 4.074 4.074 0 0 1-1.197-2.89v-10.48c0-1.129.458-2.151 1.197-2.89a4.074 4.074 0 0 1 2.89-1.197h36.266a4.07 4.07 0 0 1 2.89 1.197 4.074 4.074 0 0 1 1.197 2.89v10.48a4.075 4.075 0 0 1-1.197 2.89 4.07 4.07 0 0 1-2.89 1.197z"/><path style="fill:none;stroke:#fb4755;stroke-width:8;stroke-linecap:round;stroke-miterlimit:10" d="M96.993 304.138v72.309M196.804 304.138v72.309M114.2 454.584h8.49c1.185 0 2.28-.375 3.175-1.013a5.51 5.51 0 0 0 1.975-2.587 5.447 5.447 0 0 0 .34-1.89v-40.67c0-4.305-.872-8.408-2.45-12.139a31.227 31.227 0 0 0-6.68-9.911 31.084 31.084 0 0 0-22.06-9.14c-3.195 0-6.277.48-9.18 1.372a31.08 31.08 0 0 0-8.1 3.848 31.408 31.408 0 0 0-8.85 8.94 31.092 31.092 0 0 0-3.73 7.997 31.152 31.152 0 0 0-1.33 9.033v40.67c0 1.44.555 2.752 1.465 3.732a5.475 5.475 0 0 0 3.811 1.752c.074.004.149.006.224.006h6.07"/><path style="fill:#fb4755" d="M174.001 397.052a22.728 22.728 0 0 0 6.679 16.124 22.73 22.73 0 0 0 16.124 6.679 22.728 22.728 0 0 0 16.124-6.679 22.73 22.73 0 0 0 6.679-16.124 22.728 22.728 0 0 0-6.679-16.124 22.73 22.73 0 0 0-16.124-6.679 22.728 22.728 0 0 0-16.124 6.679 22.728 22.728 0 0 0-6.679 16.124z"/><path style="fill:#fc646f" d="M184.833 397.052c0 3.306 1.34 6.298 3.506 8.465s5.159 3.506 8.465 3.506 6.298-1.34 8.465-3.506 3.506-5.159 3.506-8.465-1.34-6.298-3.506-8.465-5.159-3.506-8.465-3.506-6.298 1.34-8.465 3.506-3.506 5.159-3.506 8.465z"/><path style="fill:#faa268" d="M471.5 371.436h-177a13.96 13.96 0 0 1-9.9-4.1 13.96 13.96 0 0 1-4.1-9.9v-241c0-3.866 1.567-7.366 4.1-9.899a13.957 13.957 0 0 1 9.9-4.101h177c3.866 0 7.366 1.567 9.9 4.101a13.96 13.96 0 0 1 4.1 9.899v241a13.96 13.96 0 0 1-4.1 9.9 13.96 13.96 0 0 1-9.9 4.1z"/><path style="fill:#d9d9d9" d="M468.5 122.312v229.25c0 1.485-.602 2.827-1.576 3.799s-2.319 1.571-3.804 1.571H302.88a5.371 5.371 0 0 1-5.38-5.37v-229.25c0-1.485.602-2.83 1.576-3.804s2.319-1.576 3.804-1.576h160.24c1.485 0 2.83.602 3.804 1.576s1.576 2.319 1.576 3.804z"/><path style="fill:#fdfaf8" d="M468.5 122.312v229.25c0 1.485-.602 2.827-1.576 3.799s-2.319 1.571-3.804 1.571H327.88a5.371 5.371 0 0 1-5.38-5.37v-229.25c0-1.485.602-2.83 1.576-3.804s2.319-1.576 3.804-1.576h135.24c1.485 0 2.83.602 3.804 1.576s1.576 2.319 1.576 3.804z"/><path style="fill:#e3769c" d="M425.5 103.192v20c0 2.07-.84 3.945-2.198 5.303a7.476 7.476 0 0 1-5.302 2.197h-70c-2.07 0-3.945-.84-5.302-2.197a7.477 7.477 0 0 1-2.198-5.303v-20c0-2.07.84-3.945 2.198-5.303A7.476 7.476 0 0 1 348 95.692h70c2.07 0 3.945.84 5.302 2.197a7.477 7.477 0 0 1 2.198 5.303z"/><path style="fill:#fb80a5" d="M425.5 103.192v20c0 2.07-.84 3.945-2.198 5.303a7.476 7.476 0 0 1-5.302 2.197h-48c-2.07 0-3.945-.84-5.302-2.197a7.477 7.477 0 0 1-2.198-5.303v-20c0-2.07.84-3.945 2.198-5.303A7.476 7.476 0 0 1 370 95.692h48c2.07 0 3.945.84 5.302 2.197a7.477 7.477 0 0 1 2.198 5.303z"/><path style="fill:#e0a47f" d="M410.665 87.692v8h-55.33v-8c0-1.84.745-3.508 1.951-4.715s2.874-1.955 4.719-1.955h42c1.84 0 3.505.748 4.71 1.955s1.95 2.875 1.95 4.715z"/><path style="fill:#f7b588" d="M410.665 87.692v8h-41v-8c0-1.84.747-3.508 1.955-4.715a6.648 6.648 0 0 1 4.715-1.955h27.67c1.84 0 3.505.748 4.71 1.955s1.95 2.875 1.95 4.715z"/><path style="fill:none;stroke:#1f3d5c;stroke-width:8;stroke-linecap:round;stroke-linejoin:round;stroke-miterlimit:10" d="M325.167 202.923h30.666v-30.666h-30.666v15.333zM325.167 259.452h30.666v-30.666h-30.666v15.333zM325.167 311.127h30.666V280.46h-30.666v15.334zM369.665 185.457h72.502M369.665 244.119h72.502M369.665 295.794h72.502"/><path style="fill:none;stroke:#95d52a;stroke-width:8;stroke-linecap:round;stroke-linejoin:round;stroke-miterlimit:10" d="m333.5 190.747 3.5 2.79 3.5 2.79 12.5-10.924 12.5-10.923M333.5 245.052l3.5 2.79 3.5 2.79 12.5-10.923 12.5-10.923"/></svg>
